# xmcd
#
# Track frame offsets:
#	150
#	42627
#	85706
#	118336
#	152849
#
# Disc length: 3609 seconds
#
# Revision: 1
# Processed by: cddbd v1.5.2PL0 Copyright (c) Steve Scherf et al.
# Submitted via: audiograbber 1.83.01
#
DISCID=3d0e1705
DTITLE=Various Artist - Zeit für Träume 1
DYEAR=2006
DGENRE=Ambient
TTITLE0=Eine Oase zum Entspannen
TTITLE1=Innere Ruhe kehrt ein
TTITLE2=Die wohltuende Harmonie genießen
TTITLE3=Besinnliche Momente erfahren
TTITLE4=Die Seele baumeln lassen
EXTD=
EXTT0=
EXTT1=
EXTT2=
EXTT3=
EXTT4=
PLAYORDER=
